HIERARCHY
ROOT pelvis
{
  OFFSET 0 100 0
  CHANNELS 6 Xposition Yposition Zposition Zrotation Xrotation Yrotation
  JOINT pelvis_right_femur
  {
    OFFSET -10.78128 -3.44521 -0.5502486
    CHANNELS 3 Zrotation Xrotation Yrotation
    JOINT right_femur_tibia
    {
      OFFSET -0.8047443 -44.0398 -0.1307829
      CHANNELS 3 Zrotation Xrotation Yrotation
      JOINT right_tibia_foot
      {
        OFFSET 3.006224 -47.83518 -5
        CHANNELS 3 Zrotation Xrotation Yrotation
        End Site
        {
          OFFSET 0 -5 15
        }
      }
    }
  }
  JOINT pelvis_left_femur
  {
    OFFSET 10.78128 -3.44521 -0.5502486
    CHANNELS 3 Zrotation Xrotation Yrotation
    JOINT left_femur_tibia
    {
      OFFSET 0.8047443 -44.0398 -0.1307829
      CHANNELS 3 Zrotation Xrotation Yrotation
      JOINT left_tibia_foot
      {
        OFFSET -4.370144 -48.10324 -4.275266
        CHANNELS 3 Zrotation Xrotation Yrotation
        End Site
        {
          OFFSET 0 -5 15
        }
      }
    }
  }
  JOINT pelvis_spine1
  {
    OFFSET 0 6.468898 -3.129235
    CHANNELS 3 Zrotation Xrotation Yrotation
    JOINT spine1
    {
      OFFSET 0 23.15396 4.99043
      CHANNELS 3 Zrotation Xrotation Yrotation
      JOINT spine2
      {
        OFFSET 0 20.79997 -5.064912
        CHANNELS 3 Zrotation Xrotation Yrotation
        JOINT neck
        {
          OFFSET 0 14.38658 9.616178
          CHANNELS 3 Zrotation Xrotation Yrotation
          End Site
          {
            OFFSET 0 20 0
          }
        }
      }
      JOINT right_manubrium
      {
        OFFSET -5.722621 16.35077 3.967754
        CHANNELS 3 Zrotation Xrotation Yrotation
        JOINT right_clavicle
        {
          OFFSET -13.16364 1.694482 -4.693211
          CHANNELS 3 Zrotation Xrotation Yrotation
          JOINT right_humerus
          {
            OFFSET -28.5034 -0.3100689 -2.792744
            CHANNELS 3 Zrotation Xrotation Yrotation
            JOINT right_radius
            {
              OFFSET -25.15693 0.02248979 -1.271978
              CHANNELS 3 Zrotation Xrotation Yrotation
              End Site
              {
                OFFSET -15 0 0
              }
            }
          }
        }
      }
      JOINT left_manubrium
      {
        OFFSET 5.722621 16.35077 3.967754
        CHANNELS 3 Zrotation Xrotation Yrotation
        JOINT left_clavicle
        {
          OFFSET 13.16364 1.694482 -4.693211
          CHANNELS 3 Zrotation Xrotation Yrotation
          JOINT left_humerus
          {
            OFFSET 29.39168 -1.063119 -2.237045
            CHANNELS 3 Zrotation Xrotation Yrotation
            JOINT left_radius
            {
              OFFSET 24.59957 -0.9528479 0.9047498
              CHANNELS 3 Zrotation Xrotation Yrotation
              End Site
              {
                OFFSET 15 -0 -0
              }
            }
          }
        }
      }
    }
  }
}
MOTION
Frames: 15
Frame Time: 0.0416666666667
-1296.411 106.5918 -361.9494 7.446795 6.695801 130.3075 2.78445 19.95967 -2.098824 -0 18.56206 -0 -8.555841 -9.085158 -1.340208 -1.771189 -14.72275 -8.484875 -0 10.82534 -0 -3.818449 -8.472572 20.9051 -1.258139 -1.349505 4.701194 -0.7120233 12.35607 -3.154807 2.376926 24.0518 4.874334 1.817911 -20.73369 7.726819 -2.617515 -23.56993 10.73613 89.39757 18.12843 -8.16197 -0 0 16.92363 -23.7925 9.318617 15.18587 3.968337 -19.30661 -5.438896 -95.2036 20.36226 27.08049 0 0 -5.364763 5.129273 14.538 8.197778
-1292.243 106.5856 -366.4579 7.501285 6.634627 129.838 2.78445 19.95967 -2.098824 -0 18.56206 -0 -8.555841 -9.085158 -1.340208 -1.771189 -14.72275 -8.484875 -0 10.82534 -0 -3.818449 -8.472572 20.9051 -1.258139 -1.349505 4.701194 -0.7120233 12.35607 -3.154807 2.376926 24.0518 4.874334 1.817911 -20.73369 7.726819 -2.617515 -23.56993 10.73613 89.39757 18.12843 -8.16197 -0 0 16.92363 -23.7925 9.318617 15.18587 3.968337 -19.30661 -5.438896 -95.2036 20.36226 27.08049 0 0 -5.364763 5.129273 14.538 8.197778
-1288.039 106.5795 -370.9322 7.555263 6.573011 129.3687 2.78445 19.95967 -2.098824 -0 18.56206 -0 -8.555841 -9.085158 -1.340208 -1.771189 -14.72275 -8.484875 -0 10.82534 -0 -3.818449 -8.472572 20.9051 -1.258139 -1.349505 4.701194 -0.7120233 12.35607 -3.154807 2.376926 24.0518 4.874334 1.817911 -20.73369 7.726819 -2.617515 -23.56993 10.73613 89.39757 18.12843 -8.16197 -0 0 16.92363 -23.7925 9.318617 15.18587 3.968337 -19.30661 -5.438896 -95.2036 20.36226 27.08049 0 0 -5.364763 5.129273 14.538 8.197778
-1283.799 106.5733 -375.3718 7.608724 6.510958 128.8995 2.78445 19.95967 -2.098824 -0 18.56206 -0 -8.555841 -9.085158 -1.340208 -1.771189 -14.72275 -8.484875 -0 10.82534 -0 -3.818449 -8.472572 20.9051 -1.258139 -1.349505 4.701194 -0.7120233 12.35607 -3.154807 2.376926 24.0518 4.874334 1.817911 -20.73369 7.726819 -2.617515 -23.56993 10.73613 89.39757 18.12843 -8.16197 -0 0 16.92363 -23.7925 9.318617 15.18587 3.968337 -19.30661 -5.438896 -95.2036 20.36226 27.08049 0 0 -5.364763 5.129273 14.538 8.197778
-1279.522 106.5671 -379.7764 7.661665 6.448472 128.4303 2.78445 19.95967 -2.098824 -0 18.56206 -0 -8.555841 -9.085158 -1.340208 -1.771189 -14.72275 -8.484875 -0 10.82534 -0 -3.818449 -8.472572 20.9051 -1.258139 -1.349505 4.701194 -0.7120233 12.35607 -3.154807 2.376926 24.0518 4.874334 1.817911 -20.73369 7.726819 -2.617515 -23.56993 10.73613 89.39757 18.12843 -8.16197 -0 0 16.92363 -23.7925 9.318617 15.18587 3.968337 -19.30661 -5.438896 -95.2036 20.36226 27.08049 0 0 -5.364763 5.129273 14.538 8.197778
-1275.209 106.5609 -384.1458 7.714083 6.385558 127.9613 2.78445 19.95967 -2.098824 -0 18.56206 -0 -8.555841 -9.085158 -1.340208 -1.771189 -14.72275 -8.484875 -0 10.82534 -0 -3.818449 -8.472572 20.9051 -1.258139 -1.349505 4.701194 -0.7120233 12.35607 -3.154807 2.376926 24.0518 4.874334 1.817911 -20.73369 7.726819 -2.617515 -23.56993 10.73613 89.39757 18.12843 -8.16197 -0 0 16.92363 -23.7925 9.318617 15.18587 3.968337 -19.30661 -5.438896 -95.2036 20.36226 27.08049 0 0 -5.364763 5.129273 14.538 8.197778
-1270.86 106.5548 -388.4796 7.765974 6.322219 127.4925 2.78445 19.95967 -2.098824 -0 18.56206 -0 -8.555841 -9.085158 -1.340208 -1.771189 -14.72275 -8.484875 -0 10.82534 -0 -3.818449 -8.472572 20.9051 -1.258139 -1.349505 4.701194 -0.7120233 12.35607 -3.154807 2.376926 24.0518 4.874334 1.817911 -20.73369 7.726819 -2.617515 -23.56993 10.73613 89.39757 18.12843 -8.16197 -0 0 16.92363 -23.7925 9.318617 15.18587 3.968337 -19.30661 -5.438896 -95.2036 20.36226 27.08049 0 0 -5.364763 5.129273 14.538 8.197778
-1266.476 106.5486 -392.7776 7.817336 6.258461 127.0237 2.78445 19.95967 -2.098824 -0 18.56206 -0 -8.555841 -9.085158 -1.340208 -1.771189 -14.72275 -8.484875 -0 10.82534 -0 -3.818449 -8.472572 20.9051 -1.258139 -1.349505 4.701194 -0.7120233 12.35607 -3.154807 2.376926 24.0518 4.874334 1.817911 -20.73369 7.726819 -2.617515 -23.56993 10.73613 89.39757 18.12843 -8.16197 -0 0 16.92363 -23.7925 9.318617 15.18587 3.968337 -19.30661 -5.438896 -95.2036 20.36226 27.08049 0 0 -5.364763 5.129273 14.538 8.197778
-1262.057 106.5424 -397.0394 7.868166 6.194287 126.555 2.78445 19.95967 -2.098824 -0 18.56206 -0 -8.555841 -9.085158 -1.340208 -1.771189 -14.72275 -8.484875 -0 10.82534 -0 -3.818449 -8.472572 20.9051 -1.258139 -1.349505 4.701194 -0.7120233 12.35607 -3.154807 2.376926 24.0518 4.874334 1.817911 -20.73369 7.726819 -2.617515 -23.56993 10.73613 89.39757 18.12843 -8.16197 -0 0 16.92363 -23.7925 9.318617 15.18587 3.968337 -19.30661 -5.438896 -95.2036 20.36226 27.08049 0 0 -5.364763 5.129273 14.538 8.197778
-1257.603 106.5362 -401.2649 7.918459 6.129702 126.0865 2.78445 19.95967 -2.098824 -0 18.56206 -0 -8.555841 -9.085158 -1.340208 -1.771189 -14.72275 -8.484875 -0 10.82534 -0 -3.818449 -8.472572 20.9051 -1.258139 -1.349505 4.701194 -0.7120233 12.35607 -3.154807 2.376926 24.0518 4.874334 1.817911 -20.73369 7.726819 -2.617515 -23.56993 10.73613 89.39757 18.12843 -8.16197 -0 0 16.92363 -23.7925 9.318617 15.18587 3.968337 -19.30661 -5.438896 -95.2036 20.36226 27.08049 0 0 -5.364763 5.129273 14.538 8.197778
-1253.114 106.5301 -405.4536 7.968214 6.06471 125.618 2.78445 19.95967 -2.098824 -0 18.56206 -0 -8.555841 -9.085158 -1.340208 -1.771189 -14.72275 -8.484875 -0 10.82534 -0 -3.818449 -8.472572 20.9051 -1.258139 -1.349505 4.701194 -0.7120233 12.35607 -3.154807 2.376926 24.0518 4.874334 1.817911 -20.73369 7.726819 -2.617515 -23.56993 10.73613 89.39757 18.12843 -8.16197 -0 0 16.92363 -23.7925 9.318617 15.18587 3.968337 -19.30661 -5.438896 -95.2036 20.36226 27.08049 0 0 -5.364763 5.129273 14.538 8.197778
-1248.591 106.5239 -409.6054 8.017427 5.999316 125.1497 2.78445 19.95967 -2.098824 -0 18.56206 -0 -8.555841 -9.085158 -1.340208 -1.771189 -14.72275 -8.484875 -0 10.82534 -0 -3.818449 -8.472572 20.9051 -1.258139 -1.349505 4.701194 -0.7120233 12.35607 -3.154807 2.376926 24.0518 4.874334 1.817911 -20.73369 7.726819 -2.617515 -23.56993 10.73613 89.39757 18.12843 -8.16197 -0 0 16.92363 -23.7925 9.318617 15.18587 3.968337 -19.30661 -5.438896 -95.2036 20.36226 27.08049 0 0 -5.364763 5.129273 14.538 8.197778
-1244.035 106.5177 -413.7198 8.066095 5.933524 124.6815 2.78445 19.95967 -2.098824 -0 18.56206 -0 -8.555841 -9.085158 -1.340208 -1.771189 -14.72275 -8.484875 -0 10.82534 -0 -3.818449 -8.472572 20.9051 -1.258139 -1.349505 4.701194 -0.7120233 12.35607 -3.154807 2.376926 24.0518 4.874334 1.817911 -20.73369 7.726819 -2.617515 -23.56993 10.73613 89.39757 18.12843 -8.16197 -0 0 16.92363 -23.7925 9.318617 15.18587 3.968337 -19.30661 -5.438896 -95.2036 20.36226 27.08049 0 0 -5.364763 5.129273 14.538 8.197778
-1239.444 106.5116 -417.7968 8.114215 5.867339 124.2134 2.78445 19.95967 -2.098824 -0 18.56206 -0 -8.555841 -9.085158 -1.340208 -1.771189 -14.72275 -8.484875 -0 10.82534 -0 -3.818449 -8.472572 20.9051 -1.258139 -1.349505 4.701194 -0.7120233 12.35607 -3.154807 2.376926 24.0518 4.874334 1.817911 -20.73369 7.726819 -2.617515 -23.56993 10.73613 89.39757 18.12843 -8.16197 -0 0 16.92363 -23.7925 9.318617 15.18587 3.968337 -19.30661 -5.438896 -95.2036 20.36226 27.08049 0 0 -5.364763 5.129273 14.538 8.197778
-1234.821 106.5054 -421.8359 8.161784 5.800765 123.7455 2.78445 19.95967 -2.098824 -0 18.56206 -0 -8.555841 -9.085158 -1.340208 -1.771189 -14.72275 -8.484875 -0 10.82534 -0 -3.818449 -8.472572 20.9051 -1.258139 -1.349505 4.701194 -0.7120233 12.35607 -3.154807 2.376926 24.0518 4.874334 1.817911 -20.73369 7.726819 -2.617515 -23.56993 10.73613 89.39757 18.12843 -8.16197 -0 0 16.92363 -23.7925 9.318617 15.18587 3.968337 -19.30661 -5.438896 -95.2036 20.36226 27.08049 0 0 -5.364763 5.129273 14.538 8.197778
